<?xml version="1.0" standalone="no"?><!DOCTYPE svg PUBLIC "-//W3C//DTD SVG 1.1//EN" "http://www.w3.org/Graphics/SVG/1.1/DTD/svg11.dtd"><svg t="1607156359075" class="icon" viewBox="0 0 1024 1024" version="1.1" xmlns="http://www.w3.org/2000/svg" p-id="3455" xmlns:xlink="http://www.w3.org/1999/xlink" width="200" height="200"><defs><style type="text/css"></style></defs><path d="M702.451492 0l-520.238666 0 0 119.310312-31.030303 0c-49.732676 0-90.204369 40.471694-90.204369 90.204369l0 516.450082 151.603477 298.035236 148.175711-298.215645 0-516.269673c0-49.732676-40.471694-90.204369-90.204369-90.204369l-28.203899 0 0-59.174066 419.991543 0 0 300.681231 300.681231 0 0 601.362462-691.566831 0 0 60.136246 751.703077 0 0-703.11299-320.706601-319.203195zM235.854358 842.027719l-48.349542 0-66.390416-130.495654 0-351.676768 60.136246 0 0 362.441156 60.136246 0 0-362.441156 59.174066 0 0 351.857176-64.706601 130.315245zM300.560958 209.514682l0 90.204369-179.446559 0 0-90.204369c0-16.537468 13.530655-30.068123 30.068123-30.068123l119.310312 0c16.597604 0 30.068123 13.530655 30.068123 30.068123zM722.476862 104.757341l196.825934 195.92389-196.825934 0 0-195.92389z" p-id="3456" fill="#1fb6b9"></path></svg>